<?xml version="1.0" encoding="UTF-8"?>
<!DOCTYPE svg PUBLIC "-//W3C//DTD SVG 1.1//EN" "http://www.w3.org/Graphics/SVG/1.1/DTD/svg11.dtd">
<svg xmlns="http://www.w3.org/2000/svg" version="1.1" xmlns:xlink="http://www.w3.org/1999/xlink">
<g><path fill="#f0f6fc99" d="M 182.5,81.5 C 182.5,88.8333 182.5,96.1667 182.5,103.5C 175.714,137.119 155.381,157.285 121.5,164C 82.5,164.667 43.5,164.667 4.5,164C 3.21075,162.198 1.54408,161.031 -0.5,160.5C -0.5,155.833 -0.5,151.167 -0.5,146.5C 2.02679,142.321 5.36013,138.821 9.5,136C 12.1013,135.08 14.7679,134.413 17.5,134C 52.8804,133.974 88.2137,133.307 123.5,132C 141.063,124.713 150.063,111.547 150.5,92.5C 150.063,73.4534 141.063,60.2867 123.5,53C 88.2137,51.693 52.8804,51.0263 17.5,51C 14.7679,50.587 12.1013,49.9203 9.5,49C 5.36013,46.1791 2.02679,42.6791 -0.5,38.5C -0.5,33.8333 -0.5,29.1667 -0.5,24.5C 1.54408,23.9688 3.21075,22.8022 4.5,21C 43.5,20.3333 82.5,20.3333 121.5,21C 155.381,27.7147 175.714,47.8814 182.5,81.5 Z"/></g>
<g><path fill="#f0f6fc99" d="M -0.5,79.5 C 39.8347,79.3333 80.168,79.5 120.5,80C 122.653,80.0995 124.319,80.9328 125.5,82.5C 126.874,84.8583 128.207,87.1917 129.5,89.5C 131.824,97.6022 128.824,102.769 120.5,105C 80.168,105.5 39.8347,105.667 -0.5,105.5C -0.5,96.8333 -0.5,88.1667 -0.5,79.5 Z"/></g>
<g><path fill="#f0f6fc99" d="M 125.5,82.5 C 128.518,83.855 129.851,86.1884 129.5,89.5C 128.207,87.1917 126.874,84.8583 125.5,82.5 Z"/></g>
</svg>
